<svg width="16" height="16" viewBox="0 0 16 16" fill="none" xmlns="http://www.w3.org/2000/svg">
<path fill-rule="evenodd" clip-rule="evenodd" d="M2.5956 4.29144C2.5956 3.35469 3.35535 2.59494 4.29135 2.59494H5.0631C5.5101 2.59494 5.93985 2.41794 6.25785 2.10219L6.7971 1.56219C7.45785 0.898443 8.53185 0.895443 9.1956 1.55619L9.20235 1.56219L9.74235 2.10219C10.0596 2.41794 10.4894 2.59494 10.9371 2.59494H11.7081C12.6449 2.59494 13.4046 3.35469 13.4046 4.29144V5.06169C13.4046 5.51019 13.5816 5.93919 13.8974 6.25719L14.4374 6.79719C15.1011 7.45794 15.1049 8.53119 14.4441 9.19569L14.4374 9.20244L13.8974 9.74244C13.5816 10.0589 13.4046 10.4894 13.4046 10.9364V11.7082C13.4046 12.6449 12.6449 13.4039 11.7081 13.4039H10.9371C10.4894 13.4039 10.0596 13.5817 9.74235 13.8974L9.20235 14.4367C8.54235 15.1012 7.46835 15.1042 6.80385 14.4434C6.8016 14.4412 6.79935 14.4389 6.7971 14.4367L6.25785 13.8974C5.93985 13.5817 5.5101 13.4039 5.0631 13.4039H4.29135C3.35535 13.4039 2.5956 12.6449 2.5956 11.7082V10.9364C2.5956 10.4894 2.41785 10.0589 2.1021 9.74244L1.56285 9.20244C0.89835 8.54169 0.895351 7.46769 1.5561 6.80394L1.56285 6.79719L2.1021 6.25719C2.41785 5.93919 2.5956 5.51019 2.5956 5.06169V4.29144Z" stroke="white" stroke-linecap="round" stroke-linejoin="round"/>
<path d="M6.07227 9.92531L9.92727 6.07031" stroke="white" stroke-linecap="round" stroke-linejoin="round"/>
<path d="M9.92578 10.4925C9.77578 10.4925 9.63328 10.4325 9.52828 10.3275C9.47578 10.275 9.43828 10.2075 9.40828 10.14C9.37828 10.0725 9.36328 10.0057 9.36328 9.93C9.36328 9.855 9.37828 9.78 9.40828 9.7125C9.43828 9.645 9.47578 9.585 9.52828 9.5325C9.73828 9.3225 10.1133 9.3225 10.3233 9.5325C10.3758 9.585 10.4208 9.645 10.4508 9.7125C10.4733 9.78 10.4883 9.855 10.4883 9.93C10.4883 10.0057 10.4733 10.0725 10.4508 10.14C10.4208 10.2075 10.3758 10.275 10.3233 10.3275C10.2183 10.4325 10.0758 10.4925 9.92578 10.4925Z" fill="white"/>
<path d="M6.07031 6.63759C5.99531 6.63759 5.92781 6.62184 5.86031 6.59184C5.79281 6.56184 5.72531 6.52509 5.67281 6.47259C5.62031 6.41259 5.58281 6.35259 5.55281 6.28509C5.52281 6.21684 5.50781 6.15009 5.50781 6.07509C5.50781 5.99934 5.52281 5.92509 5.55281 5.85759C5.58281 5.79009 5.62031 5.72259 5.67281 5.67759C5.89031 5.46684 6.25781 5.46684 6.46781 5.67759C6.57281 5.78184 6.63281 5.92509 6.63281 6.07509C6.63281 6.15009 6.62531 6.21684 6.59531 6.28509C6.56531 6.35259 6.52031 6.41259 6.46781 6.47259C6.41531 6.52509 6.35531 6.56184 6.28781 6.59184C6.22031 6.62184 6.14531 6.63759 6.07031 6.63759Z" fill="white"/>
</svg>
