<svg width="17" height="17" viewBox="0 0 17 17" fill="none" xmlns="http://www.w3.org/2000/svg">
<g clip-path="url(#clip0_30_2062)">
<path d="M14.4488 2.87865H12.3692C12.2135 2.12155 11.8015 1.44128 11.2028 0.952494C10.604 0.463706 9.85505 0.196288 9.08211 0.195313L7.74044 0.195312C6.9675 0.196288 6.21853 0.463706 5.61977 0.952494C5.021 1.44128 4.60906 2.12155 4.45336 2.87865H2.37378C2.19586 2.87865 2.02523 2.94932 1.89942 3.07513C1.77362 3.20093 1.70294 3.37156 1.70294 3.54948C1.70294 3.7274 1.77362 3.89802 1.89942 4.02383C2.02523 4.14964 2.19586 4.22031 2.37378 4.22031H3.04461V12.9411C3.04567 13.8304 3.3994 14.6829 4.0282 15.3117C4.657 15.9405 5.50952 16.2942 6.39878 16.2953H10.4238C11.313 16.2942 12.1656 15.9405 12.7944 15.3117C13.4232 14.6829 13.7769 13.8304 13.7779 12.9411V4.22031H14.4488C14.6267 4.22031 14.7973 4.14964 14.9231 4.02383C15.0489 3.89802 15.1196 3.7274 15.1196 3.54948C15.1196 3.37156 15.0489 3.20093 14.9231 3.07513C14.7973 2.94932 14.6267 2.87865 14.4488 2.87865ZM7.74044 1.53698H9.08211C9.49821 1.53749 9.90396 1.6667 10.2437 1.90691C10.5835 2.14711 10.8406 2.48654 10.9799 2.87865H5.84265C5.98191 2.48654 6.23905 2.14711 6.57882 1.90691C6.91859 1.6667 7.32434 1.53749 7.74044 1.53698ZM12.4363 12.9411C12.4363 13.4749 12.2242 13.9868 11.8468 14.3642C11.4694 14.7416 10.9575 14.9536 10.4238 14.9536H6.39878C5.86503 14.9536 5.35314 14.7416 4.97572 14.3642C4.59831 13.9868 4.38628 13.4749 4.38628 12.9411V4.22031H12.4363V12.9411Z" fill="#7A808A"/>
<path d="M7.06966 12.27C7.24757 12.27 7.4182 12.1993 7.54401 12.0735C7.66981 11.9477 7.74049 11.7771 7.74049 11.5991V7.57415C7.74049 7.39624 7.66981 7.22561 7.54401 7.0998C7.4182 6.974 7.24757 6.90332 7.06966 6.90332C6.89174 6.90332 6.72111 6.974 6.59531 7.0998C6.4695 7.22561 6.39883 7.39624 6.39883 7.57415V11.5991C6.39883 11.7771 6.4695 11.9477 6.59531 12.0735C6.72111 12.1993 6.89174 12.27 7.06966 12.27Z" fill="#7A808A"/>
<path d="M9.7529 12.27C9.93082 12.27 10.1014 12.1993 10.2273 12.0735C10.3531 11.9477 10.4237 11.7771 10.4237 11.5991V7.57415C10.4237 7.39624 10.3531 7.22561 10.2273 7.0998C10.1014 6.974 9.93082 6.90332 9.7529 6.90332C9.57499 6.90332 9.40436 6.974 9.27855 7.0998C9.15274 7.22561 9.08207 7.39624 9.08207 7.57415V11.5991C9.08207 11.7771 9.15274 11.9477 9.27855 12.0735C9.40436 12.1993 9.57499 12.27 9.7529 12.27Z" fill="#7A808A"/>
</g>
<defs>
<clipPath id="clip0_30_2062">
<rect width="16.1" height="16.1" fill="white" transform="translate(0.361328 0.195312)"/>
</clipPath>
</defs>
</svg>
