<svg width="16" height="17" viewBox="0 0 16 17" fill="none" xmlns="http://www.w3.org/2000/svg">
<g clip-path="url(#clip0_30_2054)">
<path d="M14.479 1.52411C14.0482 1.06875 13.4644 0.812988 12.8558 0.812988C12.2471 0.812988 11.6633 1.06875 11.2326 1.52411L0.92827 12.4345C0.633188 12.7452 0.399219 13.1148 0.2399 13.5218C0.0805816 13.9289 -0.000924684 14.3653 9.72296e-05 14.8059V16.1832C9.72296e-05 16.3611 0.0668476 16.5317 0.185664 16.6575C0.304481 16.7833 0.46563 16.854 0.633662 16.854H1.93437C2.35047 16.8552 2.76267 16.7691 3.14711 16.6005C3.53155 16.4319 3.88059 16.1843 4.17402 15.8719L14.479 4.96079C14.9088 4.50476 15.1503 3.88677 15.1503 3.24245C15.1503 2.59814 14.9088 1.98015 14.479 1.52411ZM3.27816 14.9233C2.92083 15.2992 2.43803 15.5108 1.93437 15.5123H1.26723V14.8059C1.26659 14.5416 1.31548 14.2797 1.41107 14.0355C1.50666 13.7912 1.64706 13.5695 1.82413 13.3831L9.64422 5.10301L11.1014 6.64593L3.27816 14.9233ZM13.5825 4.01223L11.9947 5.69401L10.5375 4.15445L12.1259 2.47267C12.2216 2.37158 12.3351 2.29144 12.4601 2.23681C12.585 2.18219 12.7189 2.15415 12.854 2.15431C12.9892 2.15447 13.123 2.18281 13.2478 2.23772C13.3727 2.29263 13.486 2.37304 13.5815 2.47435C13.677 2.57566 13.7527 2.69589 13.8043 2.82817C13.8559 2.96045 13.8823 3.1022 13.8822 3.24532C13.882 3.38843 13.8553 3.53012 13.8034 3.66228C13.7515 3.79445 13.6756 3.9145 13.5799 4.01559L13.5825 4.01223Z" fill="#07CB6F"/>
</g>
<defs>
<clipPath id="clip0_30_2054">
<rect width="15.2056" height="16.1" fill="white" transform="translate(0 0.753906)"/>
</clipPath>
</defs>
</svg>
