<svg width="16" height="16" viewBox="0 0 16 16" fill="none" xmlns="http://www.w3.org/2000/svg">
<path d="M3.50104 1.38493C4.3743 0.791018 5.3565 0.375885 6.391 0.163479C7.4255 -0.0489277 8.49182 -0.0544049 9.52844 0.147363C10.5651 0.349131 11.5515 0.754151 12.4308 1.33906C13.3101 1.92397 14.0649 2.67719 14.6517 3.55527C15.2384 4.43336 15.6455 5.41893 15.8494 6.45513C16.0534 7.49133 16.0501 8.55766 15.8399 9.5926C15.6296 10.6275 15.2166 11.6106 14.6245 12.4851C14.0324 13.3596 13.273 14.1082 12.3902 14.6878C10.6259 15.8459 8.47555 16.26 6.4074 15.8398C4.33925 15.4197 2.52089 14.1994 1.34838 12.4447C0.175866 10.69 -0.255803 8.54307 0.147395 6.47156C0.550593 4.40004 1.75599 2.57176 3.50104 1.38493ZM3.54561 10.6649C3.08847 11.2763 3.23133 12.442 3.32276 13.0878C4.42864 14.1065 5.84051 14.7306 7.33824 14.8629C8.83598 14.9952 10.3354 14.6282 11.6027 13.8192C11.3343 13.6786 11.0987 13.4826 10.9115 13.2442C10.7244 13.0059 10.5899 12.7305 10.517 12.4363C10.3113 11.4135 10.9913 10.7735 11.5056 10.2992C12.0199 9.82491 12.1399 9.64777 12.077 9.43063C11.9359 9.44891 11.797 9.47748 11.6599 9.51634C11.4701 9.60348 11.261 9.64032 11.0529 9.62331C10.8447 9.6063 10.6444 9.53601 10.4713 9.4192C10.3568 9.30102 10.2746 9.15539 10.2325 8.99629C10.1905 8.83718 10.1901 8.66994 10.2313 8.51063C10.2467 8.20483 10.2006 7.89904 10.0955 7.61143C9.9905 7.32382 9.82875 7.06024 9.61989 6.83635C9.23703 6.29349 8.65989 5.47063 9.44846 4.75635C10.2735 4.01776 10.9961 3.17218 11.597 2.24207C10.5055 1.5483 9.23897 1.17964 7.9456 1.17921H7.73418L7.76275 1.28207L7.79646 1.34321C8.27303 2.21178 8.7896 3.15235 8.47703 4.45349C8.22789 5.49521 7.25475 5.82492 6.53132 6.06949L6.51132 6.07635C6.2631 6.14126 6.02613 6.24337 5.80847 6.3792C5.52275 6.76206 5.60275 7.14492 5.75132 7.71634C5.86841 8.0009 5.92094 8.30788 5.90513 8.61518C5.88932 8.92248 5.80556 9.22244 5.65989 9.49348C5.53096 9.68085 5.36103 9.83639 5.16301 9.94827C4.96498 10.0602 4.74407 10.1254 4.51704 10.1392C4.32388 10.1376 4.13348 10.185 3.9636 10.2769C3.79372 10.3688 3.64991 10.5023 3.54561 10.6649Z" fill="white"/>
</svg>
