<svg width="20" height="20" viewBox="0 0 20 20" fill="none" xmlns="http://www.w3.org/2000/svg">
<path d="M18.7772 4.8901L10.3872 0.638956L10.3837 0.637212C10.0101 0.45122 9.56619 0.455376 9.1961 0.648345L5.59764 2.55814C5.5684 2.57054 5.54031 2.58557 5.5134 2.60286L1.20122 4.89147C0.768672 5.11795 0.5 5.5617 0.5 6.0501V13.95C0.5 14.4384 0.768672 14.8821 1.20122 15.1086L9.19254 19.3499L9.19614 19.3518C9.38488 19.4502 9.59287 19.4995 9.80091 19.4995C10.0007 19.4995 10.2007 19.454 10.3837 19.3629L18.7772 15.11C19.2231 14.887 19.5 14.439 19.5 13.9403V6.05978C19.5 5.56107 19.2231 5.11305 18.7772 4.8901ZM9.71192 1.63445C9.76643 1.60647 9.83152 1.60592 9.88652 1.63289L17.7399 5.61213L14.6835 7.1338L7.00557 3.07081L9.71192 1.63445ZM9.23644 18.1133L1.72127 14.1247L1.71767 14.1228C1.65306 14.089 1.61287 14.0229 1.61287 13.95V6.55226L9.23644 10.5276V18.1133ZM9.79876 9.56569L2.21712 5.61224L5.81763 3.70137L13.4575 7.74418L9.79876 9.56569ZM18.3871 13.9403C18.3871 14.0147 18.3457 14.0816 18.279 14.1148L10.3493 18.1327V10.5347L14.0004 8.71704V10.6228C14.0004 10.9301 14.2495 11.1792 14.5568 11.1792C14.8641 11.1792 15.1133 10.9301 15.1133 10.6228V8.16296L18.3871 6.53311V13.9403Z" fill="#A9A9A9"/>
</svg>
