<svg width="20" height="22" viewBox="0 0 20 22" fill="none" xmlns="http://www.w3.org/2000/svg">
<path d="M14 7.75C13.2583 7.75 12.5333 7.53007 11.9166 7.11801C11.2999 6.70596 10.8193 6.12029 10.5355 5.43506C10.2516 4.74984 10.1774 3.99584 10.3221 3.26841C10.4668 2.54098 10.8239 1.8728 11.3484 1.34835C11.8728 0.823904 12.541 0.466751 13.2684 0.322057C13.9958 0.177362 14.7498 0.251625 15.4351 0.535453C16.1203 0.819282 16.706 1.29993 17.118 1.91661C17.5301 2.5333 17.75 3.25832 17.75 4C17.7488 4.99418 17.3533 5.94728 16.6503 6.65027C15.9473 7.35326 14.9942 7.74875 14 7.75ZM14 1.75C13.555 1.75 13.12 1.88196 12.75 2.12919C12.38 2.37643 12.0916 2.72783 11.9213 3.13896C11.751 3.5501 11.7064 4.0025 11.7932 4.43895C11.8801 4.87541 12.0943 5.27632 12.409 5.59099C12.7237 5.90566 13.1246 6.11995 13.561 6.20677C13.9975 6.29359 14.4499 6.24903 14.861 6.07873C15.2722 5.90843 15.6236 5.62004 15.8708 5.25003C16.118 4.88002 16.25 4.44501 16.25 4C16.2492 3.40352 16.0119 2.83169 15.5901 2.40991C15.1683 1.98813 14.5965 1.75082 14 1.75Z" fill="#BFA274"/>
<path d="M16.46 18.5H3.54C2.85876 18.5007 2.20094 18.2515 1.69122 17.7995C1.18149 17.3476 0.855262 16.7243 0.77437 16.0479C0.75968 15.9293 0.751544 15.81 0.75 15.6905C0.752342 15.2997 0.837649 14.9138 1.00028 14.5584C1.1629 14.203 1.39914 13.8862 1.69336 13.629L2.06936 13.2911C2.54976 12.8633 2.87095 12.2853 2.98049 11.6514L3.76953 6.91705C3.9854 5.58279 4.62533 4.35357 5.5945 3.41148C6.56368 2.46939 7.81055 1.86455 9.15039 1.68658C9.34749 1.66016 9.54701 1.71312 9.70506 1.83381C9.86311 1.9545 9.96675 2.13304 9.99317 2.33014C10.0196 2.52724 9.96662 2.72676 9.84593 2.88481C9.72524 3.04286 9.54671 3.14649 9.34961 3.17291C8.3281 3.30954 7.37773 3.77147 6.63919 4.4903C5.90065 5.20913 5.4132 6.14667 5.249 7.16411L4.46 11.9034C4.29205 12.8725 3.80126 13.7563 3.06742 14.4112L2.69142 14.7491C2.55521 14.8656 2.44539 15.0099 2.36928 15.1722C2.29316 15.3345 2.25251 15.5112 2.25001 15.6905C2.25182 15.7535 2.25704 15.8165 2.26564 15.879C2.30418 16.1893 2.45516 16.4748 2.68999 16.6814C2.92482 16.888 3.22723 17.0014 3.54 17.0001H16.46C16.778 17.0019 17.0851 16.8846 17.321 16.6713C17.5568 16.4581 17.7043 16.1643 17.7344 15.8477C17.7354 15.837 17.7461 15.7569 17.7471 15.7461C17.7621 15.5426 17.7289 15.3383 17.6502 15.15C17.5714 14.9616 17.4494 14.7945 17.294 14.6621L17.0225 14.4385C16.2547 13.7801 15.741 12.874 15.5703 11.8771L15.0596 8.79205C15.0286 8.59637 15.0763 8.39639 15.1923 8.23575C15.3082 8.07511 15.483 7.96687 15.6785 7.93463C15.874 7.90239 16.0743 7.94878 16.2357 8.06368C16.3971 8.17857 16.5065 8.35264 16.54 8.5479L17.0498 11.628C17.1597 12.2746 17.4915 12.8627 17.9882 13.2911L18.2675 13.5215C18.61 13.8157 18.8767 14.1878 19.0453 14.6066C19.2139 15.0253 19.2794 15.4784 19.2363 15.9278C19.1819 16.6271 18.8659 17.2803 18.3513 17.757C17.8368 18.2338 17.1615 18.4991 16.46 18.5Z" fill="#A9A9A9"/>
<path d="M10 21.75C9.00582 21.7487 8.05272 21.3533 7.34973 20.6503C6.64674 19.9473 6.25125 18.9942 6.25 18V17.75C6.25 17.5511 6.32902 17.3603 6.46967 17.2197C6.61032 17.079 6.80109 17 7 17C7.19891 17 7.38968 17.079 7.53033 17.2197C7.67098 17.3603 7.75 17.5511 7.75 17.75V18C7.75 18.5967 7.98705 19.169 8.40901 19.591C8.83097 20.0129 9.40326 20.25 10 20.25C10.5967 20.25 11.169 20.0129 11.591 19.591C12.0129 19.169 12.25 18.5967 12.25 18V17.75C12.25 17.5511 12.329 17.3603 12.4697 17.2197C12.6103 17.079 12.8011 17 13 17C13.1989 17 13.3897 17.079 13.5303 17.2197C13.671 17.3603 13.75 17.5511 13.75 17.75V18C13.7487 18.9942 13.3533 19.9473 12.6503 20.6503C11.9473 21.3533 10.9942 21.7487 10 21.75Z" fill="#A9A9A9"/>
</svg>
