<svg width="73" height="97" viewBox="0 0 73 97" fill="none" xmlns="http://www.w3.org/2000/svg">
<path d="M13.216 96V84.8H15.056V96H13.216ZM14.48 96V94.32H20.752V96H14.48ZM14.48 91.088V89.472H20.208V91.088H14.48ZM14.48 86.48V84.8H20.672V86.48H14.48ZM22.4135 96V84.48H24.1735V96H22.4135ZM32.6954 96.16C31.81 96.16 31.058 96 30.4394 95.68C29.8207 95.36 29.266 94.8907 28.7754 94.272L30.0234 93.024C30.3327 93.472 30.7007 93.824 31.1274 94.08C31.554 94.3253 32.098 94.448 32.7594 94.448C33.378 94.448 33.8687 94.32 34.2314 94.064C34.6047 93.808 34.7914 93.456 34.7914 93.008C34.7914 92.6347 34.6954 92.3307 34.5034 92.096C34.3114 91.8613 34.0554 91.6693 33.7354 91.52C33.426 91.36 33.0794 91.2213 32.6954 91.104C32.322 90.976 31.9434 90.8373 31.5594 90.688C31.186 90.528 30.8394 90.3307 30.5194 90.096C30.21 89.8613 29.9594 89.5573 29.7674 89.184C29.5754 88.8107 29.4794 88.336 29.4794 87.76C29.4794 87.0987 29.6394 86.5387 29.9594 86.08C30.29 85.6107 30.7327 85.2533 31.2874 85.008C31.842 84.7627 32.4607 84.64 33.1434 84.64C33.8794 84.64 34.5354 84.784 35.1114 85.072C35.698 85.36 36.1727 85.728 36.5354 86.176L35.2874 87.424C34.9674 87.0613 34.6314 86.7947 34.2794 86.624C33.938 86.4427 33.5434 86.352 33.0954 86.352C32.5407 86.352 32.1034 86.464 31.7834 86.688C31.474 86.912 31.3194 87.2267 31.3194 87.632C31.3194 87.9733 31.4154 88.2507 31.6074 88.464C31.7994 88.6667 32.05 88.8427 32.3594 88.992C32.6794 89.1307 33.026 89.264 33.3994 89.392C33.7834 89.52 34.162 89.664 34.5354 89.824C34.9194 89.984 35.266 90.192 35.5754 90.448C35.8954 90.6933 36.1514 91.0133 36.3434 91.408C36.5354 91.8027 36.6314 92.2987 36.6314 92.896C36.6314 93.8987 36.274 94.6933 35.5594 95.28C34.8554 95.8667 33.9007 96.16 32.6954 96.16ZM41.3483 96.16C40.6549 96.16 40.0256 95.984 39.4603 95.632C38.9056 95.28 38.4629 94.8053 38.1323 94.208C37.8123 93.6 37.6523 92.9227 37.6523 92.176C37.6523 91.4187 37.8123 90.7413 38.1323 90.144C38.4629 89.536 38.9056 89.056 39.4603 88.704C40.0256 88.3413 40.6549 88.16 41.3483 88.16C41.9349 88.16 42.4523 88.288 42.9003 88.544C43.3589 88.7893 43.7216 89.1307 43.9883 89.568C44.2549 90.0053 44.3883 90.5013 44.3883 91.056V93.264C44.3883 93.8187 44.2549 94.3147 43.9883 94.752C43.7323 95.1893 43.3749 95.536 42.9163 95.792C42.4576 96.0373 41.9349 96.16 41.3483 96.16ZM41.6363 94.496C42.2869 94.496 42.8096 94.2773 43.2043 93.84C43.6096 93.4027 43.8123 92.8427 43.8123 92.16C43.8123 91.7013 43.7216 91.296 43.5403 90.944C43.3589 90.592 43.1029 90.32 42.7723 90.128C42.4523 89.9253 42.0736 89.824 41.6363 89.824C41.2096 89.824 40.8309 89.9253 40.5003 90.128C40.1803 90.32 39.9243 90.592 39.7323 90.944C39.5509 91.296 39.4603 91.7013 39.4603 92.16C39.4603 92.6187 39.5509 93.024 39.7323 93.376C39.9243 93.728 40.1803 94.0053 40.5003 94.208C40.8309 94.4 41.2096 94.496 41.6363 94.496ZM43.7003 96V93.936L44.0043 92.064L43.7003 90.208V88.32H45.4603V96H43.7003ZM48.4695 96V87.312C48.4695 86.7253 48.5975 86.208 48.8535 85.76C49.1202 85.312 49.4828 84.96 49.9415 84.704C50.4108 84.448 50.9495 84.32 51.5575 84.32C52.0268 84.32 52.4268 84.4 52.7575 84.56C53.0882 84.72 53.3975 84.9493 53.6855 85.248L52.5495 86.384C52.4215 86.256 52.2828 86.1547 52.1335 86.08C51.9842 86.0053 51.7922 85.968 51.5575 85.968C51.1308 85.968 50.8002 86.0853 50.5655 86.32C50.3415 86.544 50.2295 86.8693 50.2295 87.296V96H48.4695ZM46.6295 89.92V88.32H52.5495V89.92H46.6295ZM56.692 96.16C55.9987 96.16 55.3693 95.984 54.804 95.632C54.2493 95.28 53.8067 94.8053 53.476 94.208C53.156 93.6 52.996 92.9227 52.996 92.176C52.996 91.4187 53.156 90.7413 53.476 90.144C53.8067 89.536 54.2493 89.056 54.804 88.704C55.3693 88.3413 55.9987 88.16 56.692 88.16C57.2787 88.16 57.796 88.288 58.244 88.544C58.7027 88.7893 59.0653 89.1307 59.332 89.568C59.5987 90.0053 59.732 90.5013 59.732 91.056V93.264C59.732 93.8187 59.5987 94.3147 59.332 94.752C59.076 95.1893 58.7187 95.536 58.26 95.792C57.8013 96.0373 57.2787 96.16 56.692 96.16ZM56.98 94.496C57.6307 94.496 58.1533 94.2773 58.548 93.84C58.9533 93.4027 59.156 92.8427 59.156 92.16C59.156 91.7013 59.0653 91.296 58.884 90.944C58.7027 90.592 58.4467 90.32 58.116 90.128C57.796 89.9253 57.4173 89.824 56.98 89.824C56.5533 89.824 56.1747 89.9253 55.844 90.128C55.524 90.32 55.268 90.592 55.076 90.944C54.8947 91.296 54.804 91.7013 54.804 92.16C54.804 92.6187 54.8947 93.024 55.076 93.376C55.268 93.728 55.524 94.0053 55.844 94.208C56.1747 94.4 56.5533 94.496 56.98 94.496ZM59.044 96V93.936L59.348 92.064L59.044 90.208V88.32H60.804V96H59.044Z" fill="#1A232B"/>
<rect width="73" height="73" rx="4" fill="#2EBD89"/>
<path d="M37.4683 56.3382C35.2296 56.3382 32.9909 56.0462 30.7523 55.4622C28.5136 54.8782 26.4209 54.0752 24.4743 53.0532C22.5763 52.0312 20.9703 50.8632 19.6562 49.5492L27.1753 41.8112C28.3433 42.9792 29.7303 43.9038 31.3363 44.5852C32.9909 45.2665 34.7186 45.6072 36.5193 45.6072C37.3466 45.6072 37.9793 45.5098 38.4173 45.3152C38.9039 45.0718 39.1473 44.7555 39.1473 44.3662C39.1473 43.6848 38.7336 43.1738 37.9063 42.8332C37.1276 42.4925 36.1056 42.1762 34.8403 41.8842C33.6236 41.5922 32.3096 41.2272 30.8983 40.7892C29.5356 40.3025 28.2216 39.6698 26.9563 38.8912C25.6909 38.0638 24.6689 36.9445 23.8903 35.5332C23.1116 34.0732 22.7223 32.2238 22.7223 29.9852C22.7223 27.6978 23.3549 25.6782 24.6203 23.9262C25.9343 22.1255 27.7593 20.7142 30.0953 19.6922C32.4799 18.6215 35.2296 18.0862 38.3443 18.0862C41.5076 18.0862 44.5736 18.6215 47.5423 19.6922C50.5109 20.7628 52.8713 22.3688 54.6233 24.5102L47.0313 32.2482C45.8146 30.8855 44.4763 29.9852 43.0163 29.5472C41.5563 29.0605 40.3396 28.8172 39.3663 28.8172C38.4416 28.8172 37.7846 28.9632 37.3953 29.2552C37.0546 29.4985 36.8843 29.8148 36.8843 30.2042C36.8843 30.7395 37.2736 31.1775 38.0523 31.5182C38.8309 31.8588 39.8286 32.1752 41.0453 32.4672C42.3106 32.7592 43.6246 33.1485 44.9873 33.6352C46.3499 34.1218 47.6396 34.8032 48.8563 35.6792C50.1216 36.5552 51.1436 37.7232 51.9223 39.1832C52.7009 40.5945 53.0903 42.4438 53.0903 44.7312C53.0903 48.2838 51.6789 51.1065 48.8563 53.1992C46.0336 55.2918 42.2376 56.3382 37.4683 56.3382Z" fill="white"/>
</svg>
